<svg version="1.1" xmlns="http://www.w3.org/2000/svg" xmlns:xlink="http://www.w3.org/1999/xlink" preserveAspectRatio="xMidYMid meet" viewBox="607 279 131 105"><g data-item-type="text" data-item="Business" id="logo__item--business" class="logo__item">
                <g class="logo__item__inner" transform="translate(648 331) scale(1 1) rotate(0 0 0)">
                    <text data-part-id="logo__item--business" dy="0" dominant-baseline="auto" alignment-baseline="auto" font-family="Montserrat" font-size="32px" fill="#000000" letter-spacing="0" font-weight="bold" font-style="normal" data-font-family="Montserrat" data-font-weight="bold" data-font-style="normal" data-ttf-url="/builder_assets/fontsttf/font-montserrat-bold-normal.ttf"> </text>
                </g>
            </g><g data-item-type="shape" data-item="Shape" data-logo-item="" id="logo__item--shape_1" class="logo__item">
    <g class="logo__item__inner" transform="translate(607.5 290.5) scale(1 1) rotate(0 0 0)">
        
<g>
	<path fill="#cd5660" d="M43,91.5C20.7,91.5,2.5,73.3,2.5,51S20.7,10.5,43,10.5S83.5,28.7,83.5,51S65.3,91.5,43,91.5z M43,20.7   c-16.7,0-30.3,13.6-30.3,30.3S26.3,81.2,43,81.2S73.3,67.7,73.3,51S59.7,20.7,43,20.7z" data-part-id="logo__item--shape_1__0"></path>
</g>

    </g>
</g><g data-item-type="shape" data-item="Shape" data-logo-item="" id="logo__item--shape_2" class="logo__item">
    <g class="logo__item__inner" transform="translate(652.5 289.5) scale(1 1) rotate(0 0 0)">
        
<g>
	<path fill="#cd5660" d="M43,91.5C20.7,91.5,2.5,73.3,2.5,51S20.7,10.5,43,10.5S83.5,28.7,83.5,51S65.3,91.5,43,91.5z M43,20.7   c-16.7,0-30.3,13.6-30.3,30.3S26.3,81.2,43,81.2S73.3,67.7,73.3,51S59.7,20.7,43,20.7z" data-part-id="logo__item--shape_2__0"></path>
</g>

    </g>
</g><g data-item-type="shape" data-item="Shape" data-logo-item="" id="logo__item--shape_3" class="logo__item">
    <g class="logo__item__inner" transform="translate(659.6969985961914 281.0359764099121) scale(0.2384611978426643 0.2384611978426643) rotate(0 0 0)">
        
<g>
	<path fill="#cd5660" d="M6.5,43.5C0.3,19.8,24.6-4.8,50.9,15.8C78-4.8,101.1,19.7,95.2,43.5C88.7,70.2,54.1,94,54.1,94   S13.6,70.6,6.5,43.5z" data-part-id="logo__item--shape_3__0"></path>
</g>

    </g>
</g></svg>